<?xml version="1.0" encoding="UTF-8"?>
<!DOCTYPE svg PUBLIC "-//W3C//DTD SVG 1.1//EN"
"http://www.w3.org/TR/2001/REC-SVG-20010904/DTD/svg11.dtd">

<!-- Generated by SWFRIP -->

<svg width="63.00" height="96.95" viewBox="0.00 0.00 63.00 96.95">

<!-- Shape 1 -->

<g id="shape_1" style="stroke-linecap: round; stroke-linejoin: round;">

<!-- Path Fills -->

<path style="stroke: none; stroke-opacity: 0.000; stroke-width: 0.00; fill: #FFF030; fill-opacity: 1.000; " d="M 50.30,27.00 M 50.30,27.00 q -3.40,-2.70 -5.20,-9.10 l -1.05,-4.90 l -0.60,-3.75 q -2.45,-2.55 -7.20,-4.80 l -3.05,-1.20 l -1.20,-0.45 l -13.00,0.90 q -2.85,0.25 -4.05,1.45 l -0.80,1.20 l -0.65,1.25 q -1.40,5.25 -5.55,14.10 l -5.00,9.95 q 1.45,3.30 5.15,7.00 l 5.40,4.80 q -1.10,0.00 -2.75,-0.95 l -3.15,-2.20 q -1.65,1.45 -3.20,7.35 q -1.50,5.70 -1.05,7.60 q 0.45,2.05 2.60,7.05 q 2.25,5.25 3.30,6.30 q 1.20,1.15 5.70,3.20 q 4.80,2.25 10.00,3.80 q 4.55,1.40 9.75,0.75 l 4.30,-0.95 q -1.50,-1.85 -2.20,-3.35 q 0.80,-1.80 2.95,-2.55 q 2.10,-0.75 3.50,0.40 q -0.15,0.60 -0.05,1.50 l 0.40,2.35 q 5.70,-3.05 11.30,-11.60 q 4.45,-6.65 6.25,-12.25 l -4.35,-9.85 l -1.75,-4.35 q -1.85,-1.50 -4.40,-3.15 q -1.95,3.50 -3.45,5.10 q -1.55,1.60 -3.60,2.25 q 2.60,-2.40 4.25,-5.80 q 1.35,-2.80 2.45,-7.10 M 53.70,40.20 l 1.35,-0.10 l 0.50,2.00 q 0.55,1.75 2.30,4.85 q 1.85,3.35 1.10,6.95 q -0.25,1.45 -0.90,2.50 q -0.55,1.00 -1.10,1.30 q -2.70,0.55 -8.00,-1.70 l -3.40,-1.65 l -1.35,-0.75 l -1.35,-3.90 q 5.75,4.45 8.55,5.70 l 2.05,0.65 l 1.60,0.15 q 1.55,0.10 2.05,-0.45 q 0.40,-0.35 0.40,-1.40 l -0.40,-4.10 q -0.50,-3.60 -1.50,-5.90 q -0.90,-2.20 -1.80,-3.40 l -0.75,-0.85 l 0.65,0.10 M 27.15,17.10 q 0.00,-1.10 0.45,-1.90 q 0.45,-0.80 1.00,-0.80 q 0.65,0.00 1.10,0.80 q 0.40,0.80 0.40,1.90 q 0.00,1.10 -0.40,1.90 q -0.45,0.75 -1.10,0.75 q -0.55,0.00 -1.00,-0.75 q -0.45,-0.80 -0.45,-1.90 M 15.75,19.00 q -0.40,-0.80 -0.40,-1.90 q 0.00,-1.10 0.40,-1.90 q 0.40,-0.80 1.00,-0.80 q 0.55,0.00 0.95,0.80 q 0.40,0.80 0.40,1.90 q 0.00,1.10 -0.40,1.90 q -0.40,0.75 -0.95,0.75 q -0.60,0.00 -1.00,-0.75 M 16.60,32.10 q -2.55,-4.20 -3.45,-6.75 q 2.50,-0.95 5.85,-1.55 q 6.80,-1.30 11.30,0.25 q -1.50,2.30 -6.50,7.30 l -4.80,4.50 l -2.40,-3.75 "/>

<!-- Path Lines -->

<path style="stroke: none; stroke-opacity: 0.000; stroke-width: 0.00; fill: none; fill-opacity: 0.000; " d="M 50.30,27.00 "/>

<!-- Path Fills -->

<path style="stroke: none; stroke-opacity: 0.000; stroke-width: 0.00; fill: #000000; fill-opacity: 1.000; " d="M 48.25,21.05 M 48.25,21.05 q -3.15,-5.05 -3.15,-13.30 q -3.30,-2.05 -7.05,-4.15 q -4.75,-2.60 -7.35,-3.60 l -4.35,1.05 l -6.20,0.65 q -2.90,0.00 -5.45,1.45 l -1.40,1.00 l -0.55,0.45 q -1.55,5.70 -3.95,11.85 q -4.75,12.35 -8.80,14.80 l 2.35,3.55 q 2.60,3.75 4.15,4.55 q -1.75,2.65 -3.55,7.50 q -1.90,5.10 -2.05,7.90 q 0.40,2.30 3.35,8.55 q 2.85,6.20 4.25,7.85 q 1.20,1.45 2.55,1.85 q 0.85,0.25 1.50,0.00 q 0.90,0.50 4.35,1.50 l 3.25,0.90 l 0.20,1.20 l 0.30,2.70 q 0.30,4.25 -0.90,5.70 q -1.20,0.75 -5.95,1.45 l -5.65,0.95 q -1.30,0.55 -1.60,1.60 q -0.30,0.95 0.30,1.55 q 0.45,0.50 3.45,0.90 l 2.85,0.25 l -0.70,0.95 q -0.60,1.15 -0.25,1.80 l 1.00,1.35 q 0.60,0.45 1.40,0.30 q 0.65,-0.10 2.30,-1.20 l 2.85,-1.90 q 1.80,-1.10 3.65,-1.70 q 2.45,-0.80 4.30,-0.50 q 2.65,0.35 4.30,0.00 l 0.95,-0.25 q -0.45,0.70 -0.25,1.50 q 1.10,1.20 2.25,1.30 l 1.85,-0.35 l 3.20,-1.00 l 3.60,-0.15 q 0.50,0.95 0.80,2.25 l 0.50,1.45 q 1.30,1.75 2.95,1.30 q 0.75,-0.85 1.30,-2.55 q 0.60,-2.00 0.75,-2.25 l 1.85,-1.15 q 0.70,-0.35 1.45,-0.35 l 2.70,0.50 l 3.05,0.10 q 1.45,-0.45 1.70,-1.60 q 0.25,-1.25 -1.50,-1.70 l -4.90,-1.35 q -3.45,-1.15 -5.65,-3.15 l -2.15,-3.80 q -1.00,-1.75 -1.95,-4.50 l 2.35,-1.60 q 2.00,-1.40 3.90,-3.50 q 5.85,-6.35 12.25,-20.05 l -0.90,-2.65 l -0.20,-0.85 q -0.95,-0.70 -2.05,-2.45 q -2.25,-3.45 -2.90,-8.65 l -3.75,-3.05 l -2.00,-1.55 l 0.25,-1.45 q 0.50,-1.75 1.40,-3.00 l -2.05,-2.00 q -1.55,-1.55 -2.55,-3.20 M 27.60,15.20 q -0.45,0.80 -0.45,1.90 q 0.00,1.10 0.45,1.90 q 0.45,0.75 1.00,0.75 q 0.65,0.00 1.10,-0.75 q 0.40,-0.80 0.40,-1.90 q 0.00,-1.10 -0.40,-1.90 q -0.45,-0.80 -1.10,-0.80 q -0.55,0.00 -1.00,0.80 M 15.35,17.10 q 0.00,1.10 0.40,1.90 q 0.40,0.75 1.00,0.75 q 0.55,0.00 0.95,-0.75 q 0.40,-0.80 0.40,-1.90 q 0.00,-1.10 -0.40,-1.90 q -0.40,-0.80 -0.95,-0.80 q -0.60,0.00 -1.00,0.80 q -0.40,0.80 -0.40,1.90 M 13.15,25.35 q 0.90,2.55 3.45,6.75 l 2.40,3.75 l 4.80,-4.50 q 5.00,-5.00 6.50,-7.30 q -4.50,-1.55 -11.30,-0.25 q -3.35,0.60 -5.85,1.55 M 39.55,77.65 q 1.15,1.25 2.85,4.00 l 1.40,2.45 l -0.55,1.25 l -1.15,1.55 q -3.10,0.35 -5.55,1.25 q -1.50,0.55 -2.40,1.15 l 0.05,-0.55 q -0.45,-1.25 -3.15,-1.85 l -4.25,-0.75 l -1.50,-1.00 l -0.55,-0.65 l 0.20,-3.20 q 0.20,-3.35 0.55,-4.00 l 7.45,0.60 l 6.60,-0.25 M 42.50,89.85 l -3.25,0.80 q -1.85,0.55 -3.60,1.20 l -1.35,0.10 q -0.25,-0.30 -0.10,-1.15 q 0.10,-0.80 2.35,-1.65 q 2.05,-0.80 3.20,-0.80 l 1.85,-0.35 l 2.60,-0.90 q 0.45,-0.50 0.75,-1.90 l 0.15,-1.25 q -6.10,-10.00 -7.40,-11.65 q 1.85,-2.00 3.15,-2.05 q 0.65,0.00 0.95,0.40 q 0.20,3.30 2.95,8.35 q 1.75,3.40 3.50,5.70 q 0.70,0.95 3.00,1.80 l 5.10,1.50 q 2.55,0.70 2.65,1.45 q 0.05,0.25 -0.30,0.40 q -0.30,0.20 -0.70,0.20 l -2.10,-0.15 l -2.85,-0.40 l -2.25,0.20 q -0.90,0.45 -2.00,2.00 q -0.85,3.00 -1.70,3.95 q -0.45,0.45 -0.70,0.30 l -0.40,-0.60 q -0.30,-0.75 0.00,-1.80 q 0.45,-1.85 -0.25,-4.00 l -0.60,-1.25 l -0.25,-0.45 l -0.15,1.05 l 0.50,1.65 l -0.90,-0.30 l -1.85,-0.40 M 45.10,17.90 q 1.80,6.40 5.20,9.10 q -1.10,4.30 -2.45,7.10 q -1.65,3.40 -4.25,5.80 q 2.05,-0.65 3.60,-2.25 q 1.50,-1.60 3.45,-5.10 q 2.55,1.65 4.40,3.15 l 1.75,4.35 l 4.35,9.85 q -1.80,5.60 -6.25,12.25 q -5.60,8.55 -11.30,11.60 l -0.40,-2.35 q -0.10,-0.90 0.05,-1.50 q -1.40,-1.15 -3.50,-0.40 q -2.15,0.75 -2.95,2.55 q 0.70,1.50 2.20,3.35 l -4.30,0.95 q -5.20,0.65 -9.75,-0.75 q -5.20,-1.55 -10.00,-3.80 q -4.50,-2.05 -5.70,-3.20 q -1.05,-1.05 -3.30,-6.30 q -2.15,-5.00 -2.60,-7.05 q -0.45,-1.90 1.05,-7.60 q 1.55,-5.90 3.20,-7.35 l 3.15,2.20 q 1.65,0.95 2.75,0.95 l -5.40,-4.80 q -3.70,-3.70 -5.15,-7.00 l 5.00,-9.95 q 4.15,-8.85 5.55,-14.10 l 0.65,-1.25 l 0.80,-1.20 q 1.20,-1.20 4.05,-1.45 l 13.00,-0.90 l 1.20,0.45 l 3.05,1.20 q 4.75,2.25 7.20,4.80 l 0.60,3.75 l 1.05,4.90 M 55.05,40.10 l -1.35,0.10 l -0.65,-0.10 l 0.75,0.85 q 0.90,1.20 1.80,3.40 q 1.00,2.30 1.50,5.90 l 0.40,4.10 q 0.00,1.05 -0.40,1.40 q -0.50,0.55 -2.05,0.45 l -1.60,-0.15 l -2.05,-0.65 q -2.80,-1.25 -8.55,-5.70 l 1.35,3.90 l 1.35,0.75 l 3.40,1.65 q 5.30,2.25 8.00,1.70 q 0.55,-0.30 1.10,-1.30 q 0.65,-1.05 0.90,-2.50 q 0.75,-3.60 -1.10,-6.95 q -1.75,-3.10 -2.30,-4.85 l -0.50,-2.00 M 14.50,25.80 l 2.10,-0.40 l 10.20,0.30 l -3.60,4.45 q -2.95,3.15 -4.20,3.70 l -2.70,-3.35 q -1.45,-2.20 -2.40,-4.40 l 0.60,-0.30 M 8.05,89.55 q -0.40,-0.65 2.50,-1.55 l 6.05,-0.50 l 3.35,-0.80 q 1.15,-0.60 1.60,-2.15 q 0.60,-2.55 -0.10,-8.40 l 2.95,1.15 l -0.35,3.20 q -0.35,3.35 -0.20,4.20 q 0.15,1.05 0.90,1.70 q 0.95,0.80 2.95,1.00 q 4.80,0.65 4.80,1.70 q 0.00,0.75 -1.20,1.05 q -1.50,0.40 -3.60,-0.50 q -5.45,0.00 -7.55,1.85 q -1.45,1.25 -3.70,2.50 q -2.45,1.40 -2.95,1.00 q -0.60,-0.40 -0.05,-1.85 q 0.60,-1.45 1.90,-2.35 l -4.05,-0.45 l -2.25,-0.30 q -0.75,-0.15 -1.00,-0.50 "/>

<!-- Path Lines -->

<path style="stroke: none; stroke-opacity: 0.000; stroke-width: 0.00; fill: none; fill-opacity: 0.000; " d="M 48.25,21.05 "/>

<!-- Path Fills -->

<path style="stroke: none; stroke-opacity: 0.000; stroke-width: 0.00; fill: #FF7906; fill-opacity: 1.000; " d="M 16.60,25.40 M 16.60,25.40 l -2.10,0.40 l -0.60,0.30 q 0.95,2.20 2.40,4.40 l 2.70,3.35 q 1.25,-0.55 4.20,-3.70 l 3.60,-4.45 l -10.20,-0.30 M 10.55,88.00 q -2.90,0.90 -2.50,1.55 q 0.25,0.35 1.00,0.50 l 2.25,0.30 l 4.05,0.45 q -1.30,0.90 -1.90,2.35 q -0.55,1.45 0.05,1.85 q 0.50,0.40 2.95,-1.00 q 2.25,-1.25 3.70,-2.50 q 2.10,-1.85 7.55,-1.85 q 2.10,0.90 3.60,0.50 q 1.20,-0.30 1.20,-1.05 q 0.00,-1.05 -4.80,-1.70 q -2.00,-0.20 -2.95,-1.00 q -0.75,-0.65 -0.90,-1.70 q -0.15,-0.85 0.20,-4.20 l 0.35,-3.20 l -2.95,-1.15 q 0.70,5.85 0.10,8.40 q -0.45,1.55 -1.60,2.15 l -3.35,0.80 l -6.05,0.50 M 39.25,90.65 l 3.25,-0.80 l 1.85,0.40 l 0.90,0.30 l -0.50,-1.65 l 0.15,-1.05 l 0.25,0.45 l 0.60,1.25 q 0.70,2.15 0.25,4.00 q -0.30,1.05 0.00,1.80 l 0.40,0.60 q 0.25,0.15 0.70,-0.30 q 0.85,-0.95 1.70,-3.95 q 1.10,-1.55 2.00,-2.00 l 2.25,-0.20 l 2.85,0.40 l 2.10,0.15 q 0.40,0.00 0.70,-0.20 q 0.35,-0.15 0.30,-0.40 q -0.10,-0.75 -2.65,-1.45 l -5.10,-1.50 q -2.30,-0.85 -3.00,-1.80 q -1.75,-2.30 -3.50,-5.70 q -2.75,-5.05 -2.95,-8.35 q -0.30,-0.40 -0.95,-0.40 q -1.30,0.05 -3.15,2.05 q 1.30,1.65 7.40,11.65 l -0.15,1.25 q -0.30,1.40 -0.75,1.90 l -2.60,0.90 l -1.85,0.35 q -1.15,0.00 -3.20,0.80 q -2.25,0.85 -2.35,1.65 q -0.15,0.85 0.10,1.15 l 1.35,-0.10 q 1.75,-0.65 3.60,-1.20 "/>

<!-- Path Lines -->

<path style="stroke: none; stroke-opacity: 0.000; stroke-width: 0.00; fill: none; fill-opacity: 0.000; " d="M 16.60,25.40 "/>

</g>

</svg>